<?xml version="1.0" standalone="no"?>
<!DOCTYPE svg PUBLIC "-//W3C//DTD SVG 20010904//EN"
 "http://www.w3.org/TR/2001/REC-SVG-20010904/DTD/svg10.dtd">
<svg version="1.0" xmlns="http://www.w3.org/2000/svg"
 width="618.000000pt" height="585.000000pt" viewBox="0 0 618.000000 585.000000"
 preserveAspectRatio="xMidYMid meet">

<g transform="translate(0.000000,585.000000) scale(0.100000,-0.100000)"
fill="#0092b8" stroke="none">
<path d="M2210 3955 l0 -1165 335 0 335 0 0 831 0 832 1020 -5 1020 -5 0 338
0 339 -1355 0 -1355 0 0 -1165z"/>
<path d="M3305 4047 c-3 -7 -4 -136 -3 -287 l3 -275 568 -1 567 -2 -2 287 -3
286 -563 3 c-448 2 -564 0 -567 -11z"/>
<path d="M3327 3163 c-4 -3 -7 -382 -7 -841 l0 -835 -995 5 -995 6 0 -344 0
-344 1340 0 1340 0 0 1180 0 1180 -338 0 c-186 0 -342 -3 -345 -7z"/>
<path d="M1790 2175 l0 -285 560 0 560 0 0 285 0 285 -560 0 -560 0 0 -285z"/>
</g>
</svg>
